<?xml version="1.0" ?><svg data-name="Layer 1" fill="#FFFFFF" id="Layer_1" viewBox="0 0 64 64" xmlns="http://www.w3.org/2000/svg"><title/><path d="M36,62H28a1,1,0,0,1-1-.86l-.92-6.44-6-2.5-5.55,3.64a1,1,0,0,1-1.26-.13l-5-5a1,1,0,0,1-.12-1.26l3.7-5.62L9.3,37.91,2.86,37A1,1,0,0,1,2,36V28a1,1,0,0,1,.86-1l6.44-.92,2.57-5.92-3.7-5.62a1,1,0,0,1,.12-1.26l5-5a1,1,0,0,1,1.26-.13l5.56,3.64,6-2.5L27,2.86A1,1,0,0,1,28,2h8a1,1,0,0,1,1,.86l.92,6.44,6,2.5,5.55-3.64a1,1,0,0,1,1.26.13l5,5a1,1,0,0,1,.15,1.22l-2.75,4.66,2.62,6.94,5.43.9A1,1,0,0,1,62,28v8a1,1,0,0,1-.86,1l-6.44.92-2.57,5.92,3.7,5.62a1,1,0,0,1-.12,1.26l-5,5a1,1,0,0,1-1.26.13L43.89,52.2l-6,2.5L37,61.14A1,1,0,0,1,36,62Zm-7.13-2h6.26L36,53.86a1,1,0,0,1,.6-.78l7-2.93a1,1,0,0,1,.94.08l5.32,3.49,3.85-3.85-3.56-5.39a1,1,0,0,1-.08-.95l3-6.93a1,1,0,0,1,.78-.59L60,35.13V28.85L54.84,28a1,1,0,0,1-.78-.64l-3-7.93a1,1,0,0,1,.08-.86l2.6-4.4-3.87-3.88-5.32,3.49a1,1,0,0,1-.94.08l-7-2.93a1,1,0,0,1-.6-.78L35.13,4H28.87L28,10.14a1,1,0,0,1-.6.78l-7,2.93a1,1,0,0,1-.94-.08l-5.32-3.49-3.85,3.85,3.56,5.39a1,1,0,0,1,.08.95l-3,6.93a1,1,0,0,1-.78.59L4,28.87v6.26l6.14.88a1,1,0,0,1,.78.59l3,6.93a1,1,0,0,1-.09.95l-3.55,5.39,3.85,3.85,5.32-3.49a1,1,0,0,1,.94-.08l7,2.93a1,1,0,0,1,.6.78Z"/><path d="M19.68,18.88l-1.37-1.45A19.94,19.94,0,0,1,32,12v2A17.94,17.94,0,0,0,19.68,18.88Z"/><path d="M32,52a19.76,19.76,0,0,1-10.52-3A20.11,20.11,0,0,1,13,38.32l1.9-.63a18.11,18.11,0,0,0,7.61,9.61A17.83,17.83,0,0,0,32,50Z"/><path d="M52,32H50a17.9,17.9,0,0,0-4.88-12.31l1.45-1.37A19.9,19.9,0,0,1,52,32Z"/><path d="M32,48A16,16,0,1,1,48,32,16,16,0,0,1,32,48Zm0-30A14,14,0,1,0,46,32,14,14,0,0,0,32,18Z"/><path d="M34,44H30a1,1,0,0,1-1-1V31.41l-2.71-2.7A1,1,0,0,1,26,28V24a1,1,0,0,1,.29-.71l3-3a1,1,0,0,1,1.09-.21A1,1,0,0,1,31,21v4.38l1,.5,1-.5V21a1,1,0,0,1,1.8-.6l3,4a1,1,0,0,1,.2.6v3a1,1,0,0,1-.29.71L35,31.41V43A1,1,0,0,1,34,44Zm-3-2h2V31a1,1,0,0,1,.29-.71L36,27.59V25.33L35,24v2a1,1,0,0,1-.55.89l-2,1a1,1,0,0,1-.9,0l-2-1A1,1,0,0,1,29,26V23.41l-1,1v3.18l2.71,2.7A1,1,0,0,1,31,31Z"/></svg>